<svg width="866" height="1067" viewBox="0 0 866 1067" fill="none" xmlns="http://www.w3.org/2000/svg">
<path d="M866 433C866 547.839 820.381 657.974 739.177 739.177C657.974 820.381 547.839 866 433 866C318.161 866 208.026 820.381 126.823 739.177C45.6195 657.974 0 547.839 0 433C0 318.161 45.6195 208.026 126.823 126.823C208.026 45.6195 318.161 0 433 0C547.839 0 657.974 45.6195 739.177 126.823C820.381 208.026 866 318.161 866 433ZM807.098 432.882C807.098 333.644 767.676 238.471 697.504 168.299C627.332 98.1273 532.159 58.7052 432.921 58.7052C333.683 58.7052 238.51 98.1273 168.338 168.299C98.1666 238.471 58.7445 333.644 58.7445 432.882C58.7445 482.019 68.4229 530.676 87.2271 576.073C106.031 621.47 133.593 662.719 168.338 697.465C238.51 767.636 333.683 807.058 432.921 807.058C482.059 807.058 530.715 797.38 576.112 778.576C621.51 759.772 662.758 732.21 697.504 697.465C732.25 662.719 759.811 621.47 778.615 576.073C797.419 530.676 807.098 482.019 807.098 432.882Z" fill="white"/>
<path d="M350.458 367.124C308.222 368.03 270.123 385.524 243.449 417.319C241.663 419.447 241.033 419.158 241.558 416.452L282.297 201.765C282.408 201.165 282.729 200.624 283.204 200.235C283.68 199.846 284.279 199.635 284.897 199.637H384.302C384.435 199.634 384.566 199.66 384.687 199.716C384.807 199.771 384.913 199.853 384.997 199.956C385.081 200.059 385.14 200.179 385.169 200.308C385.199 200.437 385.199 200.572 385.169 200.701L354.083 364.09C353.912 364.938 353.459 365.701 352.8 366.253C352.14 366.805 351.314 367.112 350.458 367.124Z" fill="#38B6FF"/>
<path d="M565.776 330.877L590.361 201.686C590.416 201.4 590.567 201.143 590.79 200.956C591.012 200.769 591.292 200.665 591.583 200.661H691.381C691.569 200.658 691.755 200.697 691.926 200.774C692.096 200.852 692.247 200.966 692.368 201.11C692.489 201.253 692.576 201.422 692.624 201.603C692.671 201.785 692.677 201.974 692.642 202.159L653.006 410.503C652.961 410.721 652.858 410.923 652.709 411.089C652.56 411.254 652.37 411.378 652.157 411.446C651.945 411.514 651.719 411.524 651.501 411.476C651.283 411.428 651.082 411.324 650.918 411.173L566.17 332.019C566.014 331.877 565.896 331.698 565.827 331.498C565.758 331.298 565.741 331.085 565.776 330.877Z" fill="#38B6FF"/>
<path d="M535.32 483.313L333.201 483.392C331.914 483.392 331.165 484.009 330.955 485.244L297.032 663.644C296.691 665.457 295.588 666.363 293.723 666.363H196.13C195.828 666.363 195.529 666.296 195.256 666.166C194.983 666.037 194.741 665.849 194.549 665.616C194.357 665.382 194.219 665.109 194.145 664.816C194.071 664.523 194.063 664.217 194.121 663.92C203.997 614.014 213.532 564.358 222.725 514.951C228.504 483.878 234.479 462.195 240.652 449.902C256.306 418.829 281.351 398.21 315.787 388.045C327.554 384.552 343.865 382.805 364.721 382.805C427.681 382.805 490.838 382.831 554.193 382.884C554.898 382.886 555.583 382.64 556.129 382.187C556.676 381.734 557.05 381.103 557.187 380.402L562.309 354.24C562.598 352.743 563.294 352.507 564.397 353.531L647.884 431.582C649.014 432.632 648.948 433.617 647.688 434.536L533.666 515.581C532.037 516.737 531.407 516.343 531.774 514.399L537.211 485.638C537.527 484.088 536.896 483.313 535.32 483.313Z" fill="white"/>
<path d="M642.96 463.338L604.545 665.417C604.49 665.699 604.337 665.952 604.114 666.132C603.89 666.312 603.611 666.408 603.324 666.402H503.486C503.307 666.4 503.13 666.358 502.969 666.28C502.808 666.202 502.666 666.089 502.553 665.95C502.44 665.811 502.36 665.649 502.316 665.475C502.273 665.301 502.269 665.12 502.304 664.945L525.037 545.131C525.096 544.831 525.264 544.564 525.51 544.382L641.029 462.116C641.227 461.967 641.466 461.882 641.714 461.872C641.962 461.862 642.207 461.928 642.416 462.06C642.626 462.193 642.79 462.386 642.887 462.614C642.984 462.842 643.009 463.095 642.96 463.338Z" fill="#38B6FF"/>
<path d="M189.449 974.068V912.245C189.449 911.911 189.582 911.591 189.819 911.355C190.055 911.119 190.376 910.987 190.71 910.987H227.707C228.041 910.987 228.362 911.119 228.598 911.355C228.835 911.591 228.967 911.911 228.967 912.245L229.046 1065.74C229.046 1066.08 228.913 1066.4 228.677 1066.63C228.441 1066.87 228.12 1067 227.785 1067H190.71C190.376 1067 190.055 1066.87 189.819 1066.63C189.582 1066.4 189.449 1066.08 189.449 1065.74V1007.58C189.449 1007.24 189.316 1006.92 189.08 1006.69C188.844 1006.45 188.523 1006.32 188.188 1006.32H125.818C125.484 1006.32 125.163 1006.45 124.927 1006.69C124.69 1006.92 124.558 1007.24 124.558 1007.58V1065.74C124.558 1066.08 124.425 1066.4 124.188 1066.63C123.952 1066.87 123.631 1067 123.297 1067L86.2608 1066.96C86.0953 1066.96 85.9313 1066.93 85.7783 1066.86C85.6253 1066.8 85.4864 1066.71 85.3693 1066.59C85.2522 1066.48 85.1594 1066.34 85.096 1066.18C85.0326 1066.03 85 1065.87 85 1065.7L85.0394 912.284C85.0394 911.951 85.1722 911.631 85.4087 911.395C85.6451 911.158 85.9658 911.026 86.3002 911.026L123.297 910.947C123.631 910.947 123.952 911.08 124.188 911.316C124.425 911.552 124.558 911.872 124.558 912.206V974.029C124.558 974.363 124.69 974.683 124.927 974.919C125.163 975.155 125.484 975.288 125.818 975.288L188.188 975.327C188.523 975.327 188.844 975.194 189.08 974.958C189.316 974.722 189.449 974.402 189.449 974.068Z" fill="#38B6FF"/>
<path d="M398.309 1017.01L428.922 1064.99C429.763 1066.33 429.395 1067 427.819 1067H386.528C385.425 1067 384.624 1066.51 384.124 1065.54L362.533 1024.64C362.272 1024.13 361.876 1023.71 361.389 1023.41C360.902 1023.11 360.343 1022.95 359.775 1022.95H332.274C331.066 1022.95 330.462 1023.56 330.462 1024.76L330.541 1064.68C330.541 1066.23 329.766 1067 328.216 1067H293.111C292.811 1067 292.513 1066.94 292.236 1066.83C291.959 1066.71 291.707 1066.54 291.495 1066.33C291.283 1066.12 291.114 1065.87 290.999 1065.59C290.885 1065.32 290.825 1065.02 290.825 1064.72L290.865 912.717C290.865 911.642 291.403 911.092 292.48 911.065C324.788 910.475 374.078 906.503 399.333 918.97C434.084 936.078 435.935 994.755 398.978 1014.46C397.823 1015.06 397.599 1015.91 398.309 1017.01ZM330.344 943.904L330.422 990.153C330.422 990.602 330.601 991.032 330.919 991.349C331.236 991.666 331.667 991.845 332.117 991.845L363.164 991.805C369.757 991.794 376.076 989.281 380.731 984.819C385.386 980.357 387.996 974.312 387.986 968.012V965.888C387.981 962.769 387.333 959.681 386.079 956.801C384.825 953.92 382.989 951.305 380.677 949.102C378.365 946.9 375.621 945.155 372.602 943.966C369.584 942.777 366.35 942.168 363.085 942.174L332.038 942.213C331.588 942.213 331.158 942.391 330.84 942.708C330.522 943.025 330.344 943.456 330.344 943.904Z" fill="white"/>
<path d="M523.522 943.511L523.561 971.827C523.561 972.171 523.698 972.501 523.942 972.744C524.186 972.988 524.516 973.125 524.861 973.125L596.963 973.085C597.308 973.085 597.639 973.222 597.883 973.465C598.126 973.709 598.263 974.039 598.263 974.383V1003.01C598.263 1003.36 598.126 1003.69 597.883 1003.93C597.639 1004.17 597.308 1004.31 596.963 1004.31L524.822 1004.27C524.651 1004.27 524.482 1004.31 524.324 1004.37C524.166 1004.44 524.023 1004.53 523.902 1004.65C523.782 1004.77 523.686 1004.92 523.621 1005.07C523.555 1005.23 523.522 1005.4 523.522 1005.57L523.561 1034.48C523.561 1034.82 523.698 1035.15 523.942 1035.39C524.186 1035.64 524.516 1035.77 524.861 1035.77H607.522C607.867 1035.77 608.198 1035.91 608.442 1036.15C608.686 1036.4 608.822 1036.73 608.822 1037.07L608.862 1065.7C608.862 1066.05 608.725 1066.38 608.481 1066.62C608.237 1066.86 607.906 1067 607.562 1067H485.185C484.841 1067 484.51 1066.86 484.266 1066.62C484.022 1066.38 483.885 1066.05 483.885 1065.7L483.925 912.206C483.925 911.862 484.062 911.531 484.305 911.288C484.549 911.045 484.88 910.908 485.225 910.908H604.882C605.227 910.908 605.558 911.045 605.802 911.288C606.046 911.531 606.183 911.862 606.183 912.206L606.222 940.915C606.222 941.259 606.085 941.589 605.841 941.833C605.597 942.076 605.267 942.213 604.922 942.213H524.822C524.651 942.213 524.482 942.246 524.324 942.312C524.166 942.377 524.023 942.473 523.902 942.593C523.782 942.714 523.686 942.857 523.621 943.014C523.555 943.172 523.522 943.34 523.522 943.511Z" fill="white"/>
<path d="M704.682 943.668L705.076 976.821C705.076 977.207 705.23 977.577 705.503 977.85C705.777 978.123 706.147 978.276 706.534 978.276L773.593 978.355C773.979 978.355 774.35 978.508 774.624 978.781C774.897 979.054 775.051 979.424 775.051 979.81L775.09 1008.2C775.09 1008.59 774.936 1008.96 774.663 1009.23C774.39 1009.51 774.019 1009.66 773.632 1009.66L706.298 1009.46C705.911 1009.46 705.54 1009.62 705.267 1009.89C704.993 1010.16 704.84 1010.53 704.84 1010.92L704.8 1065.54C704.8 1065.93 704.647 1066.3 704.373 1066.57C704.1 1066.85 703.729 1067 703.343 1067H666.661C666.275 1067 665.904 1066.85 665.63 1066.57C665.357 1066.3 665.203 1065.93 665.203 1065.54L664.928 912.363C664.928 911.977 665.081 911.607 665.355 911.334C665.628 911.061 665.999 910.908 666.386 910.908H779.503C779.889 910.908 780.26 911.061 780.534 911.334C780.807 911.607 780.961 911.977 780.961 912.363L781 940.758C781 941.144 780.846 941.514 780.573 941.787C780.3 942.06 779.929 942.213 779.542 942.213H706.14C705.753 942.213 705.383 942.366 705.109 942.639C704.836 942.912 704.682 943.282 704.682 943.668Z" fill="white"/>
</svg>
