<svg width="892" height="1071" viewBox="0 0 892 1071" fill="none" xmlns="http://www.w3.org/2000/svg">
<path d="M439.411 27.2158C443.565 25.1865 448.423 25.1865 452.578 27.2158L870.572 231.389C875.722 233.905 878.988 239.135 878.988 244.867V649.133C878.988 654.865 875.722 660.095 870.572 662.611L452.578 866.784C448.423 868.813 443.565 868.814 439.411 866.784L21.4165 662.611C16.2664 660.095 13 654.865 13 649.133V244.867C13 239.135 16.2664 233.905 21.4165 231.389L439.411 27.2158Z" fill="url(#paint0_linear_2_47)" stroke="#141D36" stroke-width="25" stroke-linejoin="round"/>
<path d="M501.216 109.163C500.747 109.632 500.111 109.896 499.448 109.896H393.547C392.884 109.896 392.248 109.632 391.779 109.163L303.451 20.7869C286.129 3.45569 256.5 15.7236 256.5 40.2271V622C256.5 637.188 268.812 649.5 284 649.5H608.995C624.183 649.5 636.495 637.188 636.495 622L636.495 252.631V40.2271C636.495 15.7236 606.866 3.45565 589.545 20.7869L501.216 109.163ZM372.54 257.891C363.106 257.891 355.457 250.248 355.457 240.792C355.457 231.336 363.106 223.693 372.54 223.693C381.975 223.693 389.623 231.336 389.623 240.792C389.623 250.248 381.975 257.891 372.54 257.891ZM520.455 257.891C511.02 257.891 503.372 250.248 503.372 240.792C503.372 231.336 511.02 223.693 520.455 223.693C529.89 223.693 537.538 231.336 537.538 240.792C537.538 250.248 529.89 257.891 520.455 257.891Z" fill="url(#paint1_linear_2_47)" stroke="#141D36" stroke-width="25"/>
<path d="M13.0371 259.521C13.0371 248.431 24.6558 241.175 34.6206 246.043L437.615 442.889C442.765 445.404 446.031 450.635 446.031 456.367V845.979C446.031 857.069 434.413 864.325 424.448 859.457L21.4536 662.611C16.3034 660.095 13.0371 654.865 13.0371 649.133V259.521Z" fill="#FF7325" stroke="#141D36" stroke-width="25" stroke-linejoin="round"/>
<path d="M879 259.521C879 248.431 867.381 241.175 857.417 246.043L454.422 442.888C449.272 445.404 446.006 450.635 446.006 456.366V845.979C446.006 857.069 457.625 864.324 467.589 859.457L870.583 662.611C875.734 660.095 879 654.864 879 649.132V259.521Z" fill="#D34C00" stroke="#141D36" stroke-width="25" stroke-linejoin="round"/>
<path d="M69.24 955.78H35.5C35.5 943.927 40.8667 938 51.6 938H123.42C123.42 949.853 118.053 955.78 107.32 955.78H89.82V1022.42C89.82 1027.27 88.0467 1030.96 84.5 1033.48C81.0467 1036 75.96 1037.26 69.24 1037.26V955.78ZM154.306 981.26C148.706 981.26 144.18 982.707 140.726 985.6C137.273 988.493 135.546 992.133 135.546 996.52V1026.06C135.546 1030.07 133.96 1032.97 130.786 1034.74C127.706 1036.42 122.9 1037.26 116.366 1037.26V979.3C116.366 974.633 117.906 971.04 120.986 968.52C124.066 966 128.64 964.74 134.706 964.74V973C133.306 974.493 132.14 976.08 131.206 977.76L132.186 978.32C138.066 969.267 145.393 964.74 154.166 964.74C158.366 964.74 161.54 965.86 163.686 968.1C165.833 970.34 166.906 973.187 166.906 976.64C166.906 979.253 166.206 981.54 164.806 983.5C162.193 982.007 158.693 981.26 154.306 981.26ZM201.834 1037.26C196.048 1037.26 190.681 1036.09 185.734 1033.76C180.881 1031.43 177.008 1028.25 174.114 1024.24C171.221 1020.23 169.774 1015.75 169.774 1010.8V992.88C169.774 987.653 171.221 982.893 174.114 978.6C177.101 974.213 181.068 970.807 186.014 968.38C190.961 965.953 196.281 964.74 201.974 964.74C207.574 964.74 212.708 965.907 217.374 968.24C222.134 970.48 225.868 973.7 228.574 977.9C231.281 982.007 232.634 986.673 232.634 991.9V999.46C232.634 1001.7 231.794 1003.61 230.114 1005.2C228.434 1006.69 226.288 1007.44 223.674 1007.44H188.394V1009.4C188.394 1013.13 189.514 1016.21 191.754 1018.64C194.088 1020.97 197.494 1022.14 201.974 1022.14C206.361 1022.14 209.581 1021.21 211.634 1019.34C213.688 1017.38 214.714 1014.95 214.714 1012.06C216.581 1011.87 217.981 1011.78 218.914 1011.78C222.741 1011.78 225.681 1012.57 227.734 1014.16C229.788 1015.75 230.814 1018.08 230.814 1021.16C230.814 1023.68 229.554 1026.2 227.034 1028.72C224.514 1031.24 221.014 1033.29 216.534 1034.88C212.148 1036.47 207.248 1037.26 201.834 1037.26ZM215.274 993.86V991.9C215.274 988.167 214.014 985.227 211.494 983.08C209.068 980.84 205.848 979.72 201.834 979.72C197.821 979.72 194.554 980.84 192.034 983.08C189.608 985.227 188.394 988.167 188.394 991.9V993.86H215.274ZM243.859 979.3C243.859 974.633 245.399 971.04 248.479 968.52C251.559 966 256.133 964.74 262.199 964.74V973C260.799 974.493 259.633 976.08 258.699 977.76L259.679 978.32C262.479 974.027 266.026 970.713 270.319 968.38C274.706 965.953 279.559 964.74 284.879 964.74C289.546 964.74 293.653 965.813 297.199 967.96C300.839 970.107 303.686 973.093 305.739 976.92C307.793 980.653 308.819 984.853 308.819 989.52V1026.06C308.819 1030.07 307.233 1032.97 304.059 1034.74C300.886 1036.42 296.079 1037.26 289.639 1037.26V992.46C289.639 989.287 288.613 986.627 286.559 984.48C284.599 982.333 281.799 981.26 278.159 981.26C273.679 981.26 270.039 982.707 267.239 985.6C264.439 988.493 263.039 992.133 263.039 996.52V1026.06C263.039 1030.07 261.453 1032.97 258.279 1034.74C255.199 1036.42 250.393 1037.26 243.859 1037.26V979.3ZM347.926 1037.26C342.98 1037.26 338.5 1036.19 334.486 1034.04C330.473 1031.8 327.3 1028.77 324.966 1024.94C322.633 1021.02 321.466 1016.63 321.466 1011.78V990.22C321.466 985.367 322.68 981.027 325.106 977.2C327.626 973.28 331.08 970.247 335.466 968.1C339.853 965.86 344.706 964.74 350.026 964.74C353.2 964.74 356.606 965.393 360.246 966.7C363.98 968.007 367.06 969.827 369.486 972.16L370.046 971.46C369.58 970.713 368.553 969.78 366.966 968.66V949.34C366.966 945.42 368.553 942.34 371.726 940.1C374.993 937.86 379.893 936.74 386.426 936.74V1024.52C386.426 1028.16 384.98 1031.19 382.086 1033.62C379.193 1036.05 374.76 1037.26 368.786 1037.26V1029.7C369.906 1028.3 370.793 1027.04 371.446 1025.92L370.746 1025.36C367.76 1029.37 364.54 1032.36 361.086 1034.32C357.726 1036.28 353.34 1037.26 347.926 1037.26ZM353.946 1020.74C357.866 1020.74 361.04 1019.85 363.466 1018.08C365.986 1016.21 367.246 1013.88 367.246 1011.08V990.92C367.246 988.213 365.986 985.927 363.466 984.06C361.04 982.193 357.866 981.26 353.946 981.26C349.653 981.26 346.34 982.147 344.006 983.92C341.766 985.693 340.646 988.213 340.646 991.48V1010.38C340.646 1013.74 341.766 1016.31 344.006 1018.08C346.34 1019.85 349.653 1020.74 353.946 1020.74ZM412.933 959.42C409.387 959.42 406.4 958.393 403.973 956.34C401.64 954.193 400.473 951.44 400.473 948.08C400.473 944.72 401.64 942.013 403.973 939.96C406.4 937.813 409.387 936.74 412.933 936.74C416.48 936.74 419.42 937.813 421.753 939.96C424.18 942.013 425.393 944.72 425.393 948.08C425.393 951.44 424.18 954.193 421.753 956.34C419.42 958.393 416.48 959.42 412.933 959.42ZM403.273 975.94C403.273 971.927 404.86 969.08 408.033 967.4C411.207 965.627 416.013 964.74 422.453 964.74V1026.06C422.453 1030.07 420.867 1032.97 417.693 1034.74C414.52 1036.42 409.713 1037.26 403.273 1037.26V975.94ZM439.405 979.3C439.405 974.633 440.945 971.04 444.025 968.52C447.105 966 451.679 964.74 457.745 964.74V973C456.345 974.493 455.179 976.08 454.245 977.76L455.225 978.32C458.025 974.027 461.572 970.713 465.865 968.38C470.252 965.953 475.105 964.74 480.425 964.74C485.092 964.74 489.199 965.813 492.745 967.96C496.385 970.107 499.232 973.093 501.285 976.92C503.339 980.653 504.365 984.853 504.365 989.52V1026.06C504.365 1030.07 502.779 1032.97 499.605 1034.74C496.432 1036.42 491.625 1037.26 485.185 1037.26V992.46C485.185 989.287 484.159 986.627 482.105 984.48C480.145 982.333 477.345 981.26 473.705 981.26C469.225 981.26 465.585 982.707 462.785 985.6C459.985 988.493 458.585 992.133 458.585 996.52V1026.06C458.585 1030.07 456.999 1032.97 453.825 1034.74C450.745 1036.42 445.939 1037.26 439.405 1037.26V979.3ZM546.973 1065.26C541.279 1065.26 536.239 1064.47 531.853 1062.88C527.466 1061.39 524.059 1059.33 521.633 1056.72C519.299 1054.11 518.133 1051.21 518.133 1048.04C518.133 1044.68 519.299 1042.3 521.633 1040.9C524.059 1039.5 527.466 1038.8 531.853 1038.8C532.786 1046.36 537.826 1050.14 546.973 1050.14C552.199 1050.14 555.839 1048.83 557.893 1046.22C560.039 1043.7 561.113 1040.15 561.113 1035.58V1031.94C562.699 1030.82 563.726 1029.89 564.193 1029.14L563.633 1028.44C561.206 1030.77 557.939 1032.59 553.833 1033.9C549.819 1035.21 546.179 1035.86 542.913 1035.86C537.779 1035.86 533.113 1034.79 528.913 1032.64C524.806 1030.49 521.539 1027.51 519.113 1023.68C516.779 1019.76 515.613 1015.37 515.613 1010.52V990.22C515.613 985.553 516.826 981.307 519.253 977.48C521.773 973.56 525.086 970.48 529.193 968.24C533.299 965.907 537.593 964.74 542.073 964.74C547.206 964.74 551.546 965.767 555.093 967.82C558.733 969.78 561.999 972.72 564.893 976.64L565.593 976.08C565.126 975.24 564.239 974.027 562.933 972.44C562.933 967.307 568.813 964.74 580.573 964.74V1032.64C580.573 1038.89 579.126 1044.49 576.233 1049.44C573.339 1054.48 569.326 1058.35 564.193 1061.06C559.059 1063.86 553.319 1065.26 546.973 1065.26ZM548.093 1019.48C552.013 1019.48 555.233 1018.55 557.753 1016.68C560.273 1014.72 561.533 1012.39 561.533 1009.68V990.92C561.533 988.12 560.273 985.787 557.753 983.92C555.233 982.053 552.013 981.12 548.093 981.12C543.799 981.12 540.486 982.053 538.153 983.92C535.913 985.693 534.793 988.26 534.793 991.62V1009.12C534.793 1012.39 535.913 1014.95 538.153 1016.82C540.393 1018.59 543.706 1019.48 548.093 1019.48ZM638.886 1036C636.086 1036 633.659 1035.11 631.606 1033.34C629.552 1031.47 628.526 1029.23 628.526 1026.62V947.38C628.526 944.767 629.506 942.573 631.466 940.8C633.519 938.933 635.992 938 638.886 938H675.986C685.319 938 692.739 940.52 698.246 945.56C703.846 950.6 706.646 957.367 706.646 965.86C706.646 969.687 705.572 973.373 703.426 976.92C701.372 980.373 698.619 983.127 695.166 985.18V985.74C699.926 987.42 703.706 990.173 706.506 994C709.306 997.827 710.706 1002.07 710.706 1006.74C710.706 1012.43 709.352 1017.52 706.646 1022C703.939 1026.39 700.159 1029.84 695.306 1032.36C690.452 1034.79 684.899 1036 678.646 1036H638.886ZM675.706 978.46C678.599 978.46 681.026 977.34 682.986 975.1C685.039 972.767 686.066 969.967 686.066 966.7C686.066 963.153 685.132 960.4 683.266 958.44C681.399 956.387 678.879 955.36 675.706 955.36H648.546V978.46H675.706ZM678.506 1018.64C682.052 1018.64 684.852 1017.61 686.906 1015.56C689.052 1013.41 690.126 1010.57 690.126 1007.02C690.126 1003.38 689.099 1000.58 687.046 998.62C684.992 996.567 682.146 995.54 678.506 995.54H648.546V1018.64H678.506ZM748.557 1037.26C742.397 1037.26 736.797 1036.14 731.757 1033.9C726.717 1031.66 722.751 1028.58 719.857 1024.66C716.964 1020.65 715.517 1016.12 715.517 1011.08V992.46C715.517 987.327 716.917 982.66 719.717 978.46C722.517 974.167 726.437 970.807 731.477 968.38C736.517 965.953 742.211 964.74 748.557 964.74C754.904 964.74 760.597 965.953 765.637 968.38C770.677 970.807 774.597 974.167 777.397 978.46C780.197 982.66 781.597 987.327 781.597 992.46V1011.08C781.597 1016.12 780.151 1020.65 777.257 1024.66C774.364 1028.58 770.397 1031.66 765.357 1033.9C760.317 1036.14 754.717 1037.26 748.557 1037.26ZM748.557 1020.74C752.944 1020.74 756.351 1019.76 758.777 1017.8C761.204 1015.84 762.417 1013.13 762.417 1009.68V993.44C762.417 989.8 761.157 986.86 758.637 984.62C756.211 982.38 752.851 981.26 748.557 981.26C744.264 981.26 740.857 982.38 738.337 984.62C735.911 986.86 734.697 989.8 734.697 993.44V1009.68C734.697 1013.13 735.911 1015.84 738.337 1017.8C740.764 1019.76 744.171 1020.74 748.557 1020.74ZM793.26 1037.26C791.3 1037.26 789.293 1036.93 787.24 1036.28C785.186 1035.72 783.553 1034.79 782.34 1033.48L806.7 1000.02L784.44 967.54C785.186 966.7 786.633 966.047 788.78 965.58C790.926 965.02 792.84 964.74 794.52 964.74C799.933 964.74 803.573 966.233 805.44 969.22L816.92 987.7L813.98 991.76L815.1 992.6L830.22 969.22C832.18 966.233 836.053 964.74 841.84 964.74C843.52 964.74 845.293 965.02 847.16 965.58C849.12 966.047 850.473 966.7 851.22 967.54L828.82 1000.02L853.32 1033.48C852.106 1034.79 850.566 1035.72 848.7 1036.28C846.833 1036.93 844.966 1037.26 843.1 1037.26C841.046 1037.26 838.993 1036.89 836.94 1036.14C834.98 1035.39 833.58 1034.46 832.74 1033.34L817.76 1011.08L802.92 1033.34C802.08 1034.55 800.773 1035.49 799 1036.14C797.226 1036.89 795.313 1037.26 793.26 1037.26Z" fill="white"/>
<defs>
<linearGradient id="paint0_linear_2_47" x1="445.994" y1="24" x2="446" y2="602" gradientUnits="userSpaceOnUse">
<stop stop-color="#141D36"/>
<stop offset="1"/>
</linearGradient>
<linearGradient id="paint1_linear_2_47" x1="446" y1="136.104" x2="446" y2="607.477" gradientUnits="userSpaceOnUse">
<stop stop-color="white"/>
<stop offset="0.215596" stop-color="white"/>
<stop offset="1" stop-color="#141D36"/>
</linearGradient>
</defs>
</svg>
